PathFileType  4	(X/Y/Z) C:\Users\antoi\Documents\MyRepositories\mobilecap\ResultsAnalysis
DataRate	CameraRate	NumFrames	NumMarkers	Units	OrigDataRate	OrigDataStartFrame	OrigNumFrames
100.0	100.0	4	51	mm	100.0	100	265
Frame#	Time	r_knee			r_shank_antsup			r_ankle			r_calc			r_5meta			r_toe			L_knee			L_shank_antsup			L_ankle			L_calc			L_5meta			L_toe			r_sh2			r_sh3			r_sh4			L_sh2			L_sh3			r_thigh1			r_thigh2			r_thigh3			r_thigh4			r_thigh5			L_thigh1			L_thigh2			L_thigh3			L_thigh4			r.ASIS			r.PSIS			L.ASIS			L.PSIS			C7			R_Shoulder			L_Shoulder			R_Sternum			L_Sternum			R_humerus			R_elbow_med			R_elbow_lat			R_forearm			R_wrist_radius			R_wrist_ulna			L_humerus			L_elbow_med			L_elbow_lat			L_forearm			L_wrist_radius			L_wrist_ulna			R_HJC			L_HJC			R_HJC_reg			L_HJC_reg			
		X1	Y1	Z1	X2	Y2	Z2	X3	Y3	Z3	X4	Y4	Z4	X5	Y5	Z5	X6	Y6	Z6	X7	Y7	Z7	X8	Y8	Z8	X9	Y9	Z9	X10	Y10	Z10	X11	Y11	Z11	X12	Y12	Z12	X13	Y13	Z13	X14	Y14	Z14	X15	Y15	Z15	X16	Y16	Z16	X17	Y17	Z17	X18	Y18	Z18	X19	Y19	Z19	X20	Y20	Z20	X21	Y21	Z21	X22	Y22	Z22	X23	Y23	Z23	X24	Y24	Z24	X25	Y25	Z25	X26	Y26	Z26	X27	Y27	Z27	X28	Y28	Z28	X29	Y29	Z29	X30	Y30	Z30	X31	Y31	Z31	X32	Y32	Z32	X33	Y33	Z33	X34	Y34	Z34	X35	Y35	Z35	X36	Y36	Z36	X37	Y37	Z37	X38	Y38	Z38	X39	Y39	Z39	X40	Y40	Z40	X41	Y41	Z41	X42	Y42	Z42	X43	Y43	Z43	X44	Y44	Z44	X45	Y45	Z45	X46	Y46	Z46	X47	Y47	Z47	X48	Y48	Z48	X49	Y49	Z49	X50	Y50	Z50	X51	Y51	Z51	

100	0.99000000	-813.01086	881.47154	-421.25896	-835.37830	755.20824	-428.33640	-1080.78161	519.17785	-426.86413	-1143.87791	548.92384	-479.44105	-1049.65136	372.57219	-387.99762	-1001.33005	356.51947	-457.17874	-880.74885	879.20322	-783.91987	-884.06567	765.48338	-767.07379	-1127.54087	517.20640	-730.59126	-1187.54298	535.26137	-675.32369	-1077.13747	365.84563	-760.09622	-1034.73532	361.06229	-693.22842	-891.88916	654.57223	-446.64979	-894.21403	777.96497	-383.62400	-947.95176	675.98841	-380.52047	-958.32980	806.44179	-797.42841	-1003.57143	691.96688	-800.24900	-701.70790	1110.00393	-445.38257	-708.93099	997.52727	-454.82115	-739.40996	972.68702	-399.43797	-789.79253	1106.38223	-373.12302	-791.59316	989.00746	-387.83226	-770.17852	1120.37253	-808.82713	-775.49748	983.31053	-798.85764	-880.77365	1125.26593	-823.80118	-886.93348	985.15854	-812.79653	-720.57427	1372.92476	-462.46848	-912.94233	1453.50719	-543.43171	-731.27371	1364.39880	-733.56886	-916.66815	1456.40255	-643.19494	-749.46665	1927.36186	-601.49856	-683.62362	1856.41732	-415.51215	-689.02048	1870.09490	-773.79088	-626.86139	1810.87548	-577.05911	-632.37364	1808.89066	-625.62470	-744.30767	1715.63130	-319.60978	-936.98472	1569.21552	-324.13736	-896.40439	1588.04291	-249.60102	-854.88588	1415.94441	-236.42757	-857.33259	1296.63978	-220.99131	-890.22409	1296.77874	-195.51508	-761.23917	1729.87528	-882.10746	-939.84841	1585.30548	-867.75598	-901.92682	1593.07103	-940.24799	-841.81914	1432.45036	-914.86273	-829.65076	1316.51784	-937.25128	-855.80985	1318.12932	-976.10535	-821.54314	1315.13831	-495.87011	-830.01081	1299.21824	-708.49880	-812.74928	1303.27901	-499.68000	-819.43480	1308.47077	-678.64272	
101	1.00000000	-802.20917	894.30766	-421.38846	-823.55384	768.96830	-427.41794	-1063.22965	526.00607	-424.64289	-1122.56951	558.65881	-478.86853	-1043.73662	375.42857	-387.89077	-994.17940	357.02987	-454.66624	-869.32649	891.80637	-783.49022	-871.62685	778.61502	-767.63726	-1109.63839	526.04276	-732.67241	-1167.66232	548.82182	-676.83669	-1070.66245	370.92572	-760.19583	-1027.48567	363.37966	-694.26365	-877.27603	666.53983	-444.38234	-883.19926	790.92851	-383.19233	-933.91164	686.91150	-379.82654	-946.80527	819.12593	-796.18737	-990.43589	704.03041	-800.96223	-689.90209	1122.42120	-445.62480	-697.67015	1009.88614	-455.70465	-728.60613	985.08675	-400.34573	-778.27226	1118.53581	-374.04101	-780.48604	1001.49900	-388.74093	-759.39085	1132.51031	-810.01928	-764.18924	995.55374	-799.75437	-871.53579	1136.52482	-823.87712	-876.08883	997.34222	-811.67339	-708.51789	1386.70713	-462.57804	-900.69646	1466.99480	-543.65745	-719.35615	1377.72621	-733.28987	-904.17081	1469.72457	-643.57079	-738.98298	1939.66979	-602.48557	-674.99678	1870.45825	-416.22944	-679.36354	1883.85585	-773.64607	-616.28212	1823.76327	-577.19415	-621.82555	1821.64350	-625.99435	-737.31111	1731.82180	-319.35412	-930.86217	1586.17591	-325.24207	-890.94404	1605.16618	-250.51245	-850.79861	1432.91427	-235.97895	-854.36616	1313.35986	-220.16072	-887.42750	1313.86026	-194.83609	-754.03071	1746.22286	-883.34174	-934.14558	1604.02098	-867.98461	-896.84947	1611.15580	-940.65563	-838.87513	1449.59924	-916.43096	-828.95167	1333.22100	-938.90914	-854.86341	1336.01889	-978.38945	-809.41486	1328.81628	-495.78707	-817.79745	1312.47500	-708.38693	-800.83458	1317.00279	-499.83907	-807.05390	1321.88704	-678.58070	
102	1.01000000	-790.83507	906.07266	-421.70241	-810.84225	781.40363	-426.95473	-1046.31709	532.62163	-422.89454	-1101.91266	566.79047	-479.53621	-1036.85933	378.94171	-388.07271	-984.99942	359.27875	-450.85411	-856.42741	902.92401	-783.22203	-857.69849	790.33044	-768.08197	-1091.04944	533.87572	-735.36967	-1146.69778	561.65528	-678.02344	-1064.16118	375.62379	-760.22686	-1019.56658	365.61361	-695.70711	-861.99583	677.59848	-442.61447	-871.13708	802.82215	-382.86454	-918.82242	696.22062	-380.66897	-933.70421	830.33976	-795.19240	-975.55477	715.04784	-801.98915	-678.49422	1134.22008	-446.11696	-686.30576	1021.62888	-456.56161	-717.27160	996.61351	-401.48831	-766.83592	1129.70603	-374.78864	-769.10166	1012.98080	-389.68878	-748.55192	1143.76513	-810.77956	-752.20987	1007.03577	-800.24039	-861.49302	1146.58516	-823.35114	-864.29893	1008.43259	-810.90010	-697.09101	1399.23093	-462.86680	-889.01452	1479.86255	-543.61101	-708.28148	1389.96467	-733.10875	-892.20786	1482.32518	-643.86875	-727.84767	1951.10504	-603.14644	-665.78647	1883.33285	-417.15061	-669.07861	1896.26835	-773.38809	-605.72268	1835.13389	-577.52798	-610.80648	1833.20897	-626.35165	-729.86113	1746.98931	-319.21441	-924.62492	1602.52084	-326.52771	-885.27924	1621.61399	-251.59512	-846.73444	1449.19323	-235.49666	-851.47692	1329.46012	-219.28590	-884.68153	1330.42809	-194.10960	-746.56641	1761.53168	-883.94264	-928.52294	1622.23235	-868.65932	-891.60425	1628.66488	-941.34995	-835.29846	1466.31419	-918.14207	-828.22698	1349.23464	-940.47814	-853.77642	1353.09911	-980.64927	-798.07971	1341.52557	-495.73329	-806.62719	1324.89236	-708.30410	-789.90433	1329.99420	-500.11342	-795.58876	1334.37994	-678.58231	
103	1.02000000	-778.85985	916.59125	-422.21474	-797.30194	792.17757	-426.69442	-1031.03888	539.98430	-422.10618	-1084.09340	573.80408	-481.45551	-1025.92785	385.11480	-387.39288	-971.64752	365.14418	-446.62700	-842.29840	912.61228	-783.44953	-842.46353	800.45715	-768.71542	-1073.25191	541.41871	-737.55103	-1126.03154	573.55300	-678.08514	-1057.17583	381.11678	-760.55551	-1010.48305	369.16229	-697.85405	-846.76647	687.54691	-441.63759	-858.04510	813.13860	-382.83208	-903.78410	705.06076	-381.08165	-919.12691	839.92399	-794.83854	-959.14567	724.76355	-803.58221	-667.47323	1145.19473	-446.84551	-674.92307	1032.55817	-457.72537	-705.51321	1007.31194	-402.73177	-755.37115	1140.18584	-374.95256	-757.49000	1023.33561	-390.68657	-737.49960	1154.29379	-811.13478	-739.57891	1017.66532	-800.30519	-850.44408	1155.73023	-822.14909	-851.64815	1018.21007	-810.55598	-686.27646	1410.33894	-463.29803	-877.89614	1491.90616	-543.36751	-697.95030	1401.12923	-733.22145	-880.74938	1494.71270	-643.72323	-716.05347	1961.55696	-603.77627	-655.87429	1895.22849	-418.28531	-658.10254	1907.33046	-773.07146	-594.85354	1845.27101	-578.13544	-599.46188	1843.52127	-626.53810	-721.90685	1761.05674	-319.14987	-918.00224	1618.11532	-327.78893	-879.35979	1637.30474	-252.89983	-842.61946	1464.70707	-235.06426	-848.76436	1344.92202	-218.32818	-882.04879	1346.49284	-193.33463	-738.50427	1775.83597	-884.64960	-922.68355	1639.55949	-869.57744	-886.06040	1645.53362	-942.43885	-831.25352	1482.28499	-919.72227	-827.15858	1364.65316	-942.43152	-852.64341	1369.24884	-982.83582	-787.58517	1353.15410	-495.82517	-796.57244	1336.69831	-708.39152	-779.78796	1341.14891	-500.98799	-784.85517	1346.13432	-679.26330	
